# xmcd
#
# Track frame offsets:
#	150
#	14294
#	30008
#	50558
#	65305
#	77487
#	95078
#	111610
#	126487
#	145094
#	161869
#	176438
#	192520
#
# Disc length: 2752 seconds
#
# Revision: 1
# Processed by: cddbd v1.5.2PL0 Copyright (c) Steve Scherf et al.
# Submitted via: audiograbber 1.83.01
#
DISCID=b10abe0d
DTITLE=Red Neck Mountain Band - Country Oldtime Swissfolk
DYEAR=1900
DGENRE=
TTITLE0=Red Neck Mountain Loverboy
TTITLE1=Im Bärner Oberland
TTITLE2=All You Ever Is Bring Me Down
TTITLE3=Z' Bündner Meiteli
TTITLE4=Guitar Town
TTITLE5=Wenn i ietz no wüsst....
TTITLE6=Swinging Heinz
TTITLE7=Carved in Stone
TTITLE8=The rain came down
TTITLE9=Adalida
TTITLE10=Brunners Briefchaschte
TTITLE11=Keep your hands to yourself
TTITLE12=Arrival
EXTD=
EXTT0=
EXTT1=
EXTT2=
EXTT3=
EXTT4=
EXTT5=
EXTT6=
EXTT7=
EXTT8=
EXTT9=
EXTT10=
EXTT11=
EXTT12=
PLAYORDER=
